<mxfile host="app.diagrams.net" modified="2023-02-14T12:00:48.109Z" agent="5.0 (Windows)" etag="FMGgNfDyV7rfh3yqN4J_" version="20.8.20" type="github">
  <diagram name="Page-1" id="qQ-T2I10MWHbg_BEd5m4">
    <mxGraphModel dx="1195" dy="628" grid="1" gridSize="10" guides="1" tooltips="1" connect="1" arrows="1" fold="1" page="1" pageScale="1" pageWidth="850" pageHeight="2400" math="0" shadow="0">
      <root>
        <mxCell id="0" />
        <mxCell id="1" parent="0" />
        <mxCell id="s2-Lcs0mzYzxiKU3D228-1" value="Top-Level Modules" style="rounded=0;whiteSpace=wrap;html=1;" vertex="1" parent="1">
          <mxGeometry x="240" y="80" width="120" height="60" as="geometry" />
        </mxCell>
        <mxCell id="s2-Lcs0mzYzxiKU3D228-9" style="edgeStyle=orthogonalEdgeStyle;rounded=0;orthogonalLoop=1;jettySize=auto;html=1;" edge="1" parent="1" source="s2-Lcs0mzYzxiKU3D228-2" target="s2-Lcs0mzYzxiKU3D228-8">
          <mxGeometry relative="1" as="geometry" />
        </mxCell>
        <mxCell id="s2-Lcs0mzYzxiKU3D228-10" style="edgeStyle=orthogonalEdgeStyle;rounded=0;orthogonalLoop=1;jettySize=auto;html=1;entryX=0;entryY=0.5;entryDx=0;entryDy=0;" edge="1" parent="1" source="s2-Lcs0mzYzxiKU3D228-2" target="s2-Lcs0mzYzxiKU3D228-7">
          <mxGeometry relative="1" as="geometry" />
        </mxCell>
        <mxCell id="s2-Lcs0mzYzxiKU3D228-2" value="&lt;b&gt;Radial Solver&lt;/b&gt;&lt;br&gt;Calculates Love Numbers" style="ellipse;whiteSpace=wrap;html=1;" vertex="1" parent="1">
          <mxGeometry x="240" y="239" width="120" height="80" as="geometry" />
        </mxCell>
        <mxCell id="s2-Lcs0mzYzxiKU3D228-11" style="edgeStyle=orthogonalEdgeStyle;rounded=0;orthogonalLoop=1;jettySize=auto;html=1;entryX=0;entryY=0.5;entryDx=0;entryDy=0;" edge="1" parent="1" source="s2-Lcs0mzYzxiKU3D228-3" target="s2-Lcs0mzYzxiKU3D228-5">
          <mxGeometry relative="1" as="geometry" />
        </mxCell>
        <mxCell id="s2-Lcs0mzYzxiKU3D228-12" style="edgeStyle=orthogonalEdgeStyle;rounded=0;orthogonalLoop=1;jettySize=auto;html=1;" edge="1" parent="1" source="s2-Lcs0mzYzxiKU3D228-3" target="s2-Lcs0mzYzxiKU3D228-4">
          <mxGeometry relative="1" as="geometry" />
        </mxCell>
        <mxCell id="s2-Lcs0mzYzxiKU3D228-13" style="edgeStyle=orthogonalEdgeStyle;rounded=0;orthogonalLoop=1;jettySize=auto;html=1;entryX=0;entryY=0.5;entryDx=0;entryDy=0;" edge="1" parent="1" source="s2-Lcs0mzYzxiKU3D228-3" target="s2-Lcs0mzYzxiKU3D228-6">
          <mxGeometry relative="1" as="geometry" />
        </mxCell>
        <mxCell id="s2-Lcs0mzYzxiKU3D228-3" value="&lt;div&gt;&lt;b&gt;Tides&lt;/b&gt;&lt;/div&gt;&lt;div&gt;Calculates Tidal Dissipation&lt;/div&gt;" style="ellipse;whiteSpace=wrap;html=1;" vertex="1" parent="1">
          <mxGeometry x="240" y="490" width="120" height="80" as="geometry" />
        </mxCell>
        <mxCell id="s2-Lcs0mzYzxiKU3D228-4" value="&lt;div&gt;&lt;b&gt;Homogeneous&lt;/b&gt;&lt;/div&gt;Uses Homogeneous Assumption" style="ellipse;whiteSpace=wrap;html=1;" vertex="1" parent="1">
          <mxGeometry x="400" y="490" width="120" height="80" as="geometry" />
        </mxCell>
        <mxCell id="s2-Lcs0mzYzxiKU3D228-5" value="&lt;div&gt;&lt;b&gt;Potential&lt;/b&gt;&lt;/div&gt;&lt;div&gt;Calculates Tidal Potential&lt;br&gt;&lt;/div&gt;" style="ellipse;whiteSpace=wrap;html=1;" vertex="1" parent="1">
          <mxGeometry x="400" y="400" width="120" height="80" as="geometry" />
        </mxCell>
        <mxCell id="s2-Lcs0mzYzxiKU3D228-6" value="&lt;div&gt;&lt;b&gt;Inhomogeneous&lt;/b&gt;&lt;/div&gt;&lt;div&gt;Uses Multilayer&lt;br&gt;&lt;/div&gt;" style="ellipse;whiteSpace=wrap;html=1;" vertex="1" parent="1">
          <mxGeometry x="400" y="580" width="120" height="80" as="geometry" />
        </mxCell>
        <mxCell id="s2-Lcs0mzYzxiKU3D228-7" value="&lt;div&gt;&lt;b&gt;Matrix&lt;/b&gt;&lt;/div&gt;&lt;div&gt;Uses propagation technique&lt;br&gt;&lt;/div&gt;" style="ellipse;whiteSpace=wrap;html=1;" vertex="1" parent="1">
          <mxGeometry x="400" y="140" width="120" height="80" as="geometry" />
        </mxCell>
        <mxCell id="s2-Lcs0mzYzxiKU3D228-8" value="&lt;div&gt;&lt;b&gt;Numerical&lt;/b&gt;&lt;/div&gt;&lt;div&gt;Uses shooting method&lt;br&gt;&lt;/div&gt;" style="ellipse;whiteSpace=wrap;html=1;" vertex="1" parent="1">
          <mxGeometry x="400" y="240" width="120" height="80" as="geometry" />
        </mxCell>
        <mxCell id="s2-Lcs0mzYzxiKU3D228-18" style="edgeStyle=orthogonalEdgeStyle;rounded=0;orthogonalLoop=1;jettySize=auto;html=1;" edge="1" parent="1" source="s2-Lcs0mzYzxiKU3D228-14" target="s2-Lcs0mzYzxiKU3D228-16">
          <mxGeometry relative="1" as="geometry" />
        </mxCell>
        <mxCell id="s2-Lcs0mzYzxiKU3D228-19" style="edgeStyle=orthogonalEdgeStyle;rounded=0;orthogonalLoop=1;jettySize=auto;html=1;entryX=0;entryY=0.5;entryDx=0;entryDy=0;" edge="1" parent="1" source="s2-Lcs0mzYzxiKU3D228-14" target="s2-Lcs0mzYzxiKU3D228-15">
          <mxGeometry relative="1" as="geometry" />
        </mxCell>
        <mxCell id="s2-Lcs0mzYzxiKU3D228-20" style="edgeStyle=orthogonalEdgeStyle;rounded=0;orthogonalLoop=1;jettySize=auto;html=1;entryX=0;entryY=0.5;entryDx=0;entryDy=0;" edge="1" parent="1" source="s2-Lcs0mzYzxiKU3D228-14" target="s2-Lcs0mzYzxiKU3D228-17">
          <mxGeometry relative="1" as="geometry" />
        </mxCell>
        <mxCell id="s2-Lcs0mzYzxiKU3D228-14" value="&lt;div&gt;&lt;b&gt;Thermal&lt;/b&gt;&lt;/div&gt;All code related to thermal dynamics" style="ellipse;whiteSpace=wrap;html=1;" vertex="1" parent="1">
          <mxGeometry x="240" y="820" width="120" height="80" as="geometry" />
        </mxCell>
        <mxCell id="s2-Lcs0mzYzxiKU3D228-15" value="&lt;div&gt;&lt;b&gt;Radiogenics&lt;/b&gt;&lt;/div&gt;" style="ellipse;whiteSpace=wrap;html=1;" vertex="1" parent="1">
          <mxGeometry x="400" y="720" width="120" height="80" as="geometry" />
        </mxCell>
        <mxCell id="s2-Lcs0mzYzxiKU3D228-16" value="&lt;b&gt;Cooling&lt;/b&gt;" style="ellipse;whiteSpace=wrap;html=1;" vertex="1" parent="1">
          <mxGeometry x="400" y="820" width="120" height="80" as="geometry" />
        </mxCell>
        <mxCell id="s2-Lcs0mzYzxiKU3D228-17" value="&lt;b&gt;Rheology&lt;/b&gt;" style="ellipse;whiteSpace=wrap;html=1;" vertex="1" parent="1">
          <mxGeometry x="400" y="920" width="120" height="80" as="geometry" />
        </mxCell>
      </root>
    </mxGraphModel>
  </diagram>
</mxfile>
